<svg width="40" height="40" viewBox="0 0 40 40" fill="none" xmlns="http://www.w3.org/2000/svg">
<path d="M20.0013 7.5C11.668 7.5 4.5513 12.6833 1.66797 20C4.5513 27.3167 11.668 32.5 20.0013 32.5C28.3346 32.5 35.4513 27.3167 38.3346 20C35.4513 12.6833 28.3346 7.5 20.0013 7.5ZM20.0013 28.3333C15.4013 28.3333 11.668 24.6 11.668 20C11.668 15.4 15.4013 11.6667 20.0013 11.6667C24.6013 11.6667 28.3346 15.4 28.3346 20C28.3346 24.6 24.6013 28.3333 20.0013 28.3333ZM20.0013 15C17.2346 15 15.0013 17.2333 15.0013 20C15.0013 22.7667 17.2346 25 20.0013 25C22.768 25 25.0013 22.7667 25.0013 20C25.0013 17.2333 22.768 15 20.0013 15Z" fill="white"/>
</svg>
